# File created by Blade
# Date/Time:  Tue Jan 27 19:00:36 2015
# Frame Rate: 120.000 fps
#------------------------------------------------------
:FULLY-SPECIFIED
:DEGREES
3997
root -3.393665 31.860991 -4.511169 11.580098 -21.291472 -6.632095
Spine 2.680452 5.251508 -0.596482
Head 26.181327 9.190713 3.394758
LeftShoulder -20.329717 18.075815 12.614570
LeftArm 5.135199 -34.616416 -80.324015
LeftForeArm -8.287736 -0.000000 109.939232
LeftHand -14.379460 -0.000000 31.019705
LeftHandThumb1 -26.253704 0.000000 33.147579
RightShoulder -9.114755 -0.203934 -8.604834
RightArm 13.388022 -26.312855 69.943268
RightForeArm -28.900692 -0.000000 25.507936
RightHand -14.594692 -0.000000 8.609176
RightHandThumb1 -24.326973 -0.000000 -32.862282
LeftUpLeg -12.182914 -1.302760 -3.357583
LeftLeg 18.423692 -0.000000 -0.000000
LeftFoot -24.828483 23.402024 -10.980851
LeftToeBase 11.158936 -0.000000 -0.000000
RightUpLeg -11.458182 2.768727 -6.388519
RightLeg 22.616850 -0.000000 -0.000000
RightFoot -24.478145 -15.835710 9.339138
RightToeBase -4.115659 -0.000000 0.000000
3998
root -3.437445 31.876894 -4.564704 11.728756 -20.672177 -6.668354
Spine 2.672299 5.089405 -0.581237
Head 26.266600 8.838398 3.554964
LeftShoulder -20.271860 17.994984 12.694540
LeftArm 5.255812 -34.612509 -80.209171
LeftForeArm -8.673393 -0.000000 109.738844
LeftHand -14.301653 -0.000000 30.977942
LeftHandThumb1 -26.253704 0.000000 33.147579
RightShoulder -9.218059 -0.471436 -8.667226
RightArm 13.346715 -25.793713 69.827779
RightForeArm -28.959578 0.000000 25.404184
RightHand -14.588043 -0.000000 8.766222
RightHandThumb1 -24.326973 -0.000000 -32.862282
LeftUpLeg -12.437499 -1.516848 -3.114649
LeftLeg 18.452760 -0.000000 -0.000000
LeftFoot -24.591978 23.165866 -10.737908
LeftToeBase 11.099438 -0.000000 -0.000000
RightUpLeg -11.705489 3.204258 -5.941272
RightLeg 21.628373 -0.000000 -0.000000
RightFoot -24.360719 -14.998680 9.615454
RightToeBase -4.203157 -0.000000 0.000000
3999
root -3.485314 31.892991 -4.611225 11.839934 -20.049660 -6.673044
Spine 2.661191 4.935686 -0.601972
Head 26.404385 8.480839 3.717522
LeftShoulder -20.168841 17.958712 12.790608
LeftArm 5.396285 -34.561487 -80.073147
LeftForeArm -8.845620 -0.000000 109.509858
LeftHand -14.298997 -0.000000 30.996373
LeftHandThumb1 -26.253704 0.000000 33.147579
RightShoulder -9.359321 -0.513639 -8.743816
RightArm 13.105713 -25.383190 69.808567
RightForeArm -28.938524 -0.000000 25.239758
RightHand -14.818401 -0.000000 8.421609
RightHandThumb1 -24.326973 -0.000000 -32.862282
LeftUpLeg -12.622478 -1.688293 -2.898879
LeftLeg 18.397919 -0.000000 -0.000000
LeftFoot -24.416636 22.820983 -10.649347
LeftToeBase 11.141136 -0.000000 -0.000000
RightUpLeg -11.938786 3.475102 -5.489287
RightLeg 20.724658 -0.000000 -0.000000
RightFoot -24.054832 -14.354737 9.690872
RightToeBase -4.474649 -0.000000 0.000000
4000
root -3.531582 31.909266 -4.662259 11.963384 -19.436354 -6.664547
Spine 2.653497 4.765946 -0.629343
Head 26.502184 8.184103 3.838354
LeftShoulder -20.092846 17.904315 12.874256
LeftArm 5.559752 -34.569899 -79.971602
LeftForeArm -9.185056 -0.000000 109.290929
LeftHand -14.433433 -0.000000 31.638227
LeftHandThumb1 -26.253704 0.000000 33.147579
RightShoulder -9.446152 -0.698284 -8.824493
RightArm 12.957252 -24.885388 69.776534
RightForeArm -28.991156 0.000000 25.155375
RightHand -14.944770 -0.000000 8.273228
RightHandThumb1 -24.326973 -0.000000 -32.862282
LeftUpLeg -12.840074 -1.893778 -2.688665
LeftLeg 18.357626 -0.000000 -0.000000
LeftFoot -24.229373 22.498695 -10.554292
LeftToeBase 11.194499 -0.000000 -0.000000
RightUpLeg -12.207274 3.675255 -5.031982
RightLeg 19.882745 -0.000000 -0.000000
RightFoot -23.873131 -13.764974 9.773547
RightToeBase -5.140275 -0.000000 0.000000
4001
root -3.575890 31.925584 -4.712962 12.045380 -18.836543 -6.655333
Spine 2.698499 4.581331 -0.642599
Head 26.593825 7.915717 3.939479
LeftShoulder -20.019058 17.833982 12.954030
LeftArm 5.674120 -34.495545 -79.838017
LeftForeArm -9.308323 -0.000000 109.062972
LeftHand -14.326722 0.000000 31.501731
LeftHandThumb1 -26.253704 0.000000 33.147579
RightShoulder -9.549143 -0.785524 -8.913010
RightArm 12.837627 -24.438887 69.725944
RightForeArm -29.011647 -0.000000 24.965683
RightHand -14.949972 -0.000000 8.351862
RightHandThumb1 -24.326973 -0.000000 -32.862282
LeftUpLeg -13.003602 -2.039639 -2.493337
LeftLeg 18.280534 -0.000000 -0.000000
LeftFoot -24.023148 22.135748 -10.448215
LeftToeBase 11.238972 -0.000000 -0.000000
RightUpLeg -12.464930 3.960850 -4.581463
RightLeg 19.114545 -0.000000 -0.000000
RightFoot -23.861100 -13.387200 10.196252
RightToeBase -4.929460 -0.000000 0.000000
4002
root -3.616970 31.937610 -4.758604 12.077080 -18.248731 -6.557131
Spine 2.756205 4.361016 -0.746098
Head 26.678779 7.652103 4.033528
LeftShoulder -20.008927 17.824816 13.016430
LeftArm 5.839679 -34.401964 -79.740734
LeftForeArm -9.582443 -0.000000 108.855310
LeftHand -14.077598 -0.000000 30.998969
LeftHandThumb1 -26.253704 0.000000 33.147579
RightShoulder -9.640446 -0.848463 -9.028040
RightArm 12.700567 -24.086396 69.694589
RightForeArm -28.927468 -0.000000 24.782465
RightHand -14.844929 0.000000 8.491182
RightHandThumb1 -24.326973 -0.000000 -32.862282
LeftUpLeg -13.124131 -2.228859 -2.392026
LeftLeg 18.171212 -0.000000 -0.000000
LeftFoot -23.806610 21.853762 -10.327428
LeftToeBase 11.300716 -0.000000 -0.000000
RightUpLeg -12.824963 3.898941 -4.156579
RightLeg 18.692680 -0.000000 -0.000000
RightFoot -23.813075 -12.997109 10.286703
RightToeBase -4.995963 -0.000000 0.000000
4003
root -3.662977 31.952337 -4.805527 12.139204 -17.649780 -6.485514
Spine 2.781566 4.148156 -0.828455
Head 26.794959 7.397626 4.128421
LeftShoulder -19.951745 17.753909 13.074065
LeftArm 5.991436 -34.396841 -79.630283
LeftForeArm -9.813391 0.000000 108.672050
LeftHand -14.102720 -0.000000 31.335053
LeftHandThumb1 -26.253704 0.000000 33.147579
RightShoulder -9.731004 -0.867627 -9.117621
RightArm 12.498460 -23.708104 69.683965
RightForeArm -28.973124 -0.000000 24.629343
RightHand -14.980370 -0.000000 8.220687
RightHandThumb1 -24.326973 -0.000000 -32.862282
LeftUpLeg -13.275406 -2.319741 -2.266719
LeftLeg 18.075966 -0.000000 -0.000000
LeftFoot -23.564466 21.427119 -10.189748
LeftToeBase 11.326939 -0.000000 -0.000000
RightUpLeg -13.139329 3.900711 -3.705607
RightLeg 18.169911 -0.000000 -0.000000
RightFoot -23.758596 -12.725850 10.376881
RightToeBase -4.882843 -0.000000 0.000000
4004
root -3.705539 31.965144 -4.857237 12.182206 -17.085640 -6.424342
Spine 2.868021 3.986025 -0.874652
Head 26.849179 7.160438 4.143888
LeftShoulder -19.918077 17.679223 13.113216
LeftArm 6.223644 -34.361362 -79.579189
LeftForeArm -10.039055 -0.000000 108.452024
LeftHand -14.017815 -0.000000 31.184864
LeftHandThumb1 -26.253704 0.000000 33.147579
RightShoulder -9.807551 -0.916537 -9.258725
RightArm 12.347702 -23.302757 69.673762
RightForeArm -29.024789 -0.000000 24.474829
RightHand -14.997114 0.000000 8.193198
RightHandThumb1 -24.326973 -0.000000 -32.862282
LeftUpLeg -13.409415 -2.442693 -2.141632
LeftLeg 17.969384 -0.000000 -0.000000
LeftFoot -23.337403 21.145802 -10.032919
LeftToeBase 11.338717 -0.000000 -0.000000
RightUpLeg -13.455645 3.948272 -3.261768
RightLeg 17.733742 -0.000000 -0.000000
RightFoot -23.745727 -12.428984 10.705049
RightToeBase -5.075770 -0.000000 0.000000
4005
root -3.753579 31.979262 -4.904952 12.229619 -16.445427 -6.368093
Spine 2.900979 3.714802 -0.921513
Head 26.983495 6.947089 4.216343
LeftShoulder -19.870075 17.688406 13.136337
LeftArm 6.469119 -34.356051 -79.543094
LeftForeArm -10.171433 -0.000000 108.312174
LeftHand -14.038179 -0.000000 30.887175
LeftHandThumb1 -26.253704 0.000000 33.147579
RightShoulder -9.832037 -0.922415 -9.347441
RightArm 12.101736 -22.838663 69.672475
RightForeArm -28.959213 -0.000000 24.376324
RightHand -14.988333 0.000000 8.540943
RightHandThumb1 -24.326973 -0.000000 -32.862282
LeftUpLeg -13.526890 -2.663882 -1.982025
LeftLeg 17.820796 -0.000000 -0.000000
LeftFoot -23.144335 20.883012 -9.961959
LeftToeBase 11.482445 -0.000000 -0.000000
RightUpLeg -13.748903 3.918717 -2.791303
RightLeg 17.355606 -0.000000 -0.000000
RightFoot -23.750697 -12.077225 10.951395
RightToeBase -4.592002 -0.000000 0.000000
4006
root -3.796478 31.991540 -4.951122 12.271202 -15.851919 -6.261047
Spine 2.930144 3.481038 -1.008499
Head 27.098498 6.740911 4.246416
LeftShoulder -19.839351 17.596969 13.171649
LeftArm 6.610886 -34.263401 -79.416696
LeftForeArm -10.385993 -0.000000 108.165222
LeftHand -13.975890 -0.000000 31.095459
LeftHandThumb1 -26.253704 0.000000 33.147579
RightShoulder -9.892716 -1.011751 -9.448171
RightArm 11.991137 -22.469301 69.624317
RightForeArm -28.902580 -0.000000 24.247114
RightHand -14.987034 -0.000000 8.395842
RightHandThumb1 -24.326973 -0.000000 -32.862282
LeftUpLeg -13.641632 -2.865040 -1.886672
LeftLeg 17.653384 -0.000000 -0.000000
LeftFoot -22.921903 20.587857 -9.909642
LeftToeBase 11.503505 -0.000000 -0.000000
RightUpLeg -14.074995 3.842914 -2.379111
RightLeg 17.081411 -0.000000 -0.000000
RightFoot -23.671312 -11.738330 10.977632
RightToeBase -4.896266 -0.000000 0.000000
4007
root -3.845673 32.002276 -4.996541 12.281240 -15.228907 -6.166388
Spine 3.003690 3.287734 -1.085364
Head 27.194236 6.487828 4.300546
LeftShoulder -19.771399 17.466080 13.247033
LeftArm 6.783649 -34.082762 -79.281106
LeftForeArm -10.255644 -0.000000 107.995316
LeftHand -14.181399 -0.000000 31.044344
LeftHandThumb1 -26.253704 0.000000 33.147579
RightShoulder -10.036425 -1.056018 -9.547070
RightArm 11.824500 -22.105143 69.611333
RightForeArm -28.913603 0.000000 24.172258
RightHand -15.293684 -0.000000 8.027609
RightHandThumb1 -24.326973 -0.000000 -32.862282
LeftUpLeg -13.752841 -2.920444 -1.789904
LeftLeg 17.564088 -0.000000 -0.000000
LeftFoot -22.713502 20.154066 -9.752795
LeftToeBase 11.571781 -0.000000 -0.000000
RightUpLeg -14.350052 3.779588 -1.939159
RightLeg 16.862759 -0.000000 -0.000000
RightFoot -23.642576 -11.358096 11.016958
RightToeBase -4.895986 -0.000000 0.000000
4008
root -3.897074 32.012900 -5.043360 12.319930 -14.573122 -6.077426
Spine 3.026432 2.992755 -1.158842
Head 27.349689 6.326865 4.375805
LeftShoulder -19.747023 17.357507 13.301032
LeftArm 6.904232 -33.994171 -79.148793
LeftForeArm -10.568443 -0.000000 107.882526
LeftHand -14.096888 -0.000000 30.943673
LeftHandThumb1 -26.253704 0.000000 33.147579
RightShoulder -10.081295 -1.117743 -9.615759
RightArm 11.678398 -21.703026 69.559814
RightForeArm -28.909163 -0.000000 24.097243
RightHand -15.234083 0.000000 8.068647
RightHandThumb1 -24.326973 -0.000000 -32.862282
LeftUpLeg -13.944800 -2.875889 -1.707565
LeftLeg 17.578835 -0.000000 -0.000000
LeftFoot -22.511519 19.684511 -9.565187
LeftToeBase 11.723384 -0.000000 -0.000000
RightUpLeg -14.628261 3.718293 -1.502693
RightLeg 16.651573 -0.000000 -0.000000
RightFoot -23.562780 -10.842567 11.108387
RightToeBase -4.775730 -0.000000 0.000000
4009
root -3.931976 32.021339 -5.083482 12.315639 -13.956278 -5.845389
Spine 3.044626 2.689558 -1.338342
Head 27.509786 6.186211 4.384485
LeftShoulder -19.778774 17.371397 13.283569
LeftArm 7.231053 -33.855753 -79.137885
LeftForeArm -10.660057 -0.000000 107.718983
LeftHand -14.122214 0.000000 31.091119
LeftHandThumb1 -26.253704 0.000000 33.147579
RightShoulder -10.089289 -1.159793 -9.722677
RightArm 11.481331 -21.282299 69.541802
RightForeArm -28.933885 -0.000000 24.048744
RightHand -15.223756 -0.000000 8.084000
RightHandThumb1 -24.326973 -0.000000 -32.862282
LeftUpLeg -13.855177 -3.652621 -1.654427
LeftLeg 17.040630 -0.000000 -0.000000
LeftFoot -22.327649 19.603836 -9.859321
LeftToeBase 11.859610 -0.000000 -0.000000
RightUpLeg -14.983201 3.557480 -1.229592
RightLeg 16.685142 -0.000000 -0.000000
RightFoot -23.559663 -10.126162 11.232836
RightToeBase -4.759116 -0.000000 0.000000
